<svg width="30" height="30" viewBox="0 0 30 30" fill="none" xmlns="http://www.w3.org/2000/svg">
<path d="M26.25 8.98829L21.0586 3.78516C20.709 3.42672 20.2347 3.21685 19.7344 3.19923C19.4804 3.19338 19.228 3.23919 18.9923 3.33386C18.7566 3.42854 18.5426 3.57012 18.3633 3.75001L15.2695 6.83204L4.30078 17.8125C4.12605 17.9859 3.98742 18.1922 3.89288 18.4195C3.79834 18.6468 3.74978 18.8906 3.75 19.1367V24.375C3.75 24.8723 3.94754 25.3492 4.29918 25.7008C4.65081 26.0525 5.12772 26.25 5.625 26.25H10.8633C11.36 26.2479 11.8358 26.05 12.1875 25.6992L26.25 11.6367C26.5978 11.2837 26.7928 10.8081 26.7928 10.3125C26.7928 9.81695 26.5978 9.34128 26.25 8.98829ZM22.5 12.7383L17.2617 7.50001L19.6875 5.07423L24.9258 10.3125L22.5 12.7383Z" fill="#4042C7"/>
</svg>
